<?xml version="1.0" encoding="UTF-8"?>
<svg xmlns="http://www.w3.org/2000/svg" xmlns:xlink="http://www.w3.org/1999/xlink" width="110px" height="41px" viewBox="0 0 110 41" version="1.1">
<g id="surface1">
<path style=" stroke:none;fill-rule:evenodd;fill:rgb(98.823529%,72.156863%,13.72549%);fill-opacity:1;" d="M 71.574219 29.230469 L 71.574219 8.125 C 71.574219 0.910156 79.035156 -0.605469 84.382812 1.441406 L 84.382812 5.464844 C 80.691406 3.949219 76.546875 4.328125 76.546875 8.960938 L 82.5 8.960938 L 82.5 12.984375 L 76.546875 12.984375 L 76.546875 29.15625 Z M 71.574219 29.230469 "/>
<path style=" stroke:none;fill-rule:evenodd;fill:rgb(98.823529%,72.156863%,13.72549%);fill-opacity:1;" d="M 95.308594 5.847656 L 99 5.847656 L 99.753906 8.960938 L 104.347656 8.960938 L 104.347656 12.984375 L 100.28125 12.984375 L 100.28125 22.320312 C 100.28125 24.21875 101.109375 25.132812 102.691406 25.132812 L 105.253906 25.132812 L 105.253906 29.15625 L 100.28125 29.15625 C 96.964844 29.15625 95.234375 27.332031 95.234375 23.765625 L 95.234375 5.847656 Z M 95.308594 5.847656 "/>
<path style=" stroke:none;fill-rule:evenodd;fill:rgb(98.823529%,72.156863%,13.72549%);fill-opacity:1;" d="M 86.417969 8.960938 L 91.464844 8.960938 L 91.464844 29.15625 L 86.417969 29.15625 Z M 86.417969 8.960938 "/>
<path style=" stroke:none;fill-rule:evenodd;fill:rgb(98.823529%,72.156863%,13.72549%);fill-opacity:1;" d="M 86.417969 1.671875 L 91.464844 1.671875 L 91.464844 5.847656 L 86.417969 5.847656 Z M 86.417969 1.671875 "/>
<path style=" stroke:none;fill-rule:evenodd;fill:rgb(98.823529%,72.156863%,13.72549%);fill-opacity:1;" d="M 109.546875 29.15625 C 105.101562 36.214844 97.34375 40.847656 88.453125 40.847656 C 79.5625 40.847656 71.800781 36.214844 67.355469 29.15625 C 72.554688 34.015625 80.089844 36.976562 88.453125 36.976562 C 96.816406 37.050781 104.347656 34.015625 109.546875 29.15625 "/>
<path style=" stroke:none;fill-rule:nonzero;fill:rgb(100%,100%,100%);fill-opacity:1;" d="M 0.601562 24.523438 L 0.601562 21.789062 C 2.035156 22.398438 3.765625 22.703125 5.652344 22.703125 C 7.082031 22.703125 7.761719 22.246094 7.761719 21.335938 C 7.761719 20.5 7.308594 20.042969 6.328125 20.042969 L 3.992188 20.042969 C 1.355469 20.042969 0 18.679688 0 16.019531 C 0 13.285156 1.957031 11.921875 5.800781 11.921875 C 7.457031 11.921875 8.964844 12.148438 10.472656 12.679688 L 10.472656 15.414062 C 9.042969 14.804688 7.457031 14.5 5.726562 14.5 C 3.917969 14.5 3.089844 14.957031 3.089844 15.867188 C 3.089844 16.703125 3.617188 17.160156 4.671875 17.160156 L 6.78125 17.160156 C 9.644531 17.160156 11.152344 18.527344 11.152344 21.183594 C 11.152344 23.917969 9.265625 25.285156 5.574219 25.285156 C 3.691406 25.285156 2.109375 24.980469 0.601562 24.523438 M 13.335938 25.132812 L 13.335938 11.996094 L 15.898438 11.996094 L 16.273438 13.667969 C 17.78125 12.527344 19.289062 11.996094 20.71875 11.996094 C 22.375 11.996094 23.507812 12.605469 24.183594 13.820312 C 25.84375 12.605469 27.425781 11.996094 28.855469 11.996094 C 31.644531 11.996094 33 13.667969 33 17.007812 L 33 25.132812 L 29.683594 25.132812 L 29.683594 16.855469 C 29.683594 15.414062 29.082031 14.652344 27.875 14.652344 C 26.898438 14.652344 25.84375 15.183594 24.789062 16.324219 L 24.789062 25.132812 L 21.472656 25.132812 L 21.472656 16.855469 C 21.472656 15.335938 20.871094 14.652344 19.664062 14.652344 C 18.609375 14.652344 17.554688 15.183594 16.574219 16.324219 L 16.574219 25.132812 Z M 35.484375 21.03125 C 35.484375 18.296875 37.371094 17.007812 41.136719 17.007812 C 42.265625 17.007812 43.320312 17.082031 44.152344 17.234375 L 44.152344 16.398438 C 44.152344 15.261719 43.019531 14.652344 40.761719 14.652344 C 39.328125 14.652344 37.898438 14.882812 36.542969 15.261719 L 36.542969 12.605469 C 37.972656 12.222656 39.402344 11.996094 40.761719 11.996094 C 45.207031 11.996094 47.464844 13.4375 47.464844 16.324219 L 47.464844 25.132812 L 45.808594 25.132812 L 44.375 24.21875 C 43.246094 24.828125 42.042969 25.132812 40.761719 25.132812 C 37.21875 25.132812 35.484375 23.765625 35.484375 21.03125 Z M 44.152344 19.742188 C 43.320312 19.589844 42.34375 19.511719 41.136719 19.511719 C 39.554688 19.511719 38.726562 20.042969 38.726562 21.03125 C 38.726562 22.019531 39.402344 22.550781 40.683594 22.550781 C 42.042969 22.550781 43.171875 22.171875 44.074219 21.488281 L 44.074219 19.742188 Z M 50.707031 25.132812 L 50.707031 11.996094 L 53.265625 11.996094 L 53.644531 13.667969 C 54.773438 12.527344 55.980469 11.996094 57.261719 11.996094 L 57.261719 14.652344 C 56.054688 14.652344 54.925781 15.183594 53.945312 16.324219 L 53.945312 25.132812 Z M 59.292969 9.871094 L 61.707031 9.871094 L 62.234375 11.996094 L 65.246094 11.996094 L 65.246094 14.652344 L 62.609375 14.652344 L 62.609375 20.726562 C 62.609375 21.941406 63.136719 22.550781 64.191406 22.550781 L 65.246094 22.550781 L 65.246094 25.207031 L 62.535156 25.207031 C 60.347656 25.207031 59.21875 23.992188 59.21875 21.640625 L 59.21875 9.871094 Z M 59.292969 9.871094 "/>
</g>
</svg>
